<svg xmlns="http://www.w3.org/2000/svg" xmlns:xlink="http://www.w3.org/1999/xlink" version="1.1" width="1000" height="1000" viewBox="0 0 1000 1000" xml:space="preserve">
<rect x="0" y="0" width="100%" height="100%" fill="none"/>
<g transform="matrix(30.5597 0 0 30.7064 500.0001 499.9997)" id="109301">
<path style="stroke: #fcfffe; stroke-width: 2; stroke-miterlimit: 4; fill: none" transform=" translate(-15.9999, -15.9997)" d="M 29.51068 15.41064 C 19.78412 13.544 18.456 12.21582 16.58929 2.48926 a 0.60015 0.60015 0 0 0 -1.17871 0 C 13.54437 12.21582 12.21625 13.544 2.4892 15.41064 a 0.60016 0.60016 0 0 0 0 1.17872 c 9.72705 1.86669 11.05517 3.19482 12.92138 12.92138 a 0.60027 0.60027 0 0 0 1.17871 0 c 1.8667 -9.72656 3.19483 -11.05469 12.92139 -12.92138 a 0.60016 0.60016 0 0 0 0 -1.17872 Z" />
</g>
</svg>