<svg xmlns="http://www.w3.org/2000/svg" xmlns:xlink="http://www.w3.org/1999/xlink" version="1.1" width="940" height="788" viewBox="0 0 940 788" xml:space="preserve">
<rect x="0" y="0" width="100%" height="100%" fill="none"/>
<g transform="matrix(1 0 0 1 470 394)" style="" id="690863">
		
<path xml:space="preserve" font-family="DM Serif Display" font-size="300" font-style="normal" font-weight="normal" style="stroke: none; stroke-width: 1; stroke-dasharray: none; stroke-linecap: butt; stroke-dashoffset: 0; stroke-linejoin: miter; stroke-miterlimit: 4; is-custom-font: none; font-file-url: none; fill: #fcfffe; fill-rule: nonzero; opacity: 1; white-space: pre;" d="M-306 95.14L-326.70 95.14L-379.80-83.36Q-381.90-90.26-384.30-93.41Q-386.70-96.56-392.70-99.26L-392.70-99.26L-396.30-100.76L-396.30-103.76L-316.80-103.76L-316.80-100.76L-323.10-98.36Q-330-95.66-332.40-91.76Q-334.80-87.86-332.70-80.96L-332.70-80.96L-300 43.84L-264.60-60.86L-271.50-82.16Q-273.60-88.46-275.40-91.76Q-277.20-95.06-281.40-97.16L-281.40-97.16L-288-100.76L-288-103.76L-212.70-103.76L-212.70-100.76L-222-97.16Q-228-95.06-228.75-91.01Q-229.50-86.96-227.40-80.66L-227.40-80.66L-189.30 46.84L-153.30-78.26Q-151.20-85.46-151.80-90.86Q-152.40-96.26-159.30-98.66L-159.30-98.66L-165.60-100.76L-165.60-103.76L-123.90-103.76L-123.90-100.76L-131.70-97.76Q-137.70-95.66-140.10-91.16Q-142.50-86.66-144.30-80.06L-144.30-80.06L-194.10 95.14L-214.80 95.14L-259.80-45.86L-306 95.14ZM-39.30 98.74L-39.30 98.74Q-62.10 98.74-78.90 89.29Q-95.70 79.84-104.85 62.44Q-114.00 45.04-114.00 21.64L-114.00 21.64Q-114.00-1.76-104.25-18.86Q-94.50-35.96-77.55-45.26Q-60.60-54.56-39.30-54.56L-39.30-54.56Q-18.00-54.56-1.20-45.41Q15.60-36.26 25.35-19.16Q35.10-2.06 35.10 21.64L35.10 21.64Q35.10 45.34 25.95 62.59Q16.80 79.84 0.15 89.29Q-16.50 98.74-39.30 98.74ZM-39.30 92.74L-39.30 92.74Q-28.80 92.74-22.50 86.74Q-16.20 80.74-13.35 65.44Q-10.50 50.14-10.50 22.24L-10.50 22.24Q-10.50-5.96-13.35-21.26Q-16.20-36.56-22.50-42.56Q-28.80-48.56-39.30-48.56L-39.30-48.56Q-49.80-48.56-56.25-42.56Q-62.70-36.56-65.55-21.26Q-68.40-5.96-68.40 22.24L-68.40 22.24Q-68.40 50.14-65.55 65.44Q-62.70 80.74-56.25 86.74Q-49.80 92.74-39.30 92.74ZM126.00 94.24L48.30 94.24L48.30 91.24L52.80 90.04Q58.80 88.24 61.05 84.64Q63.30 81.04 63.30 75.34L63.30 75.34L63.30-18.56Q63.30-25.16 61.05-28.31Q58.80-31.46 52.80-32.66L52.80-32.66L48.30-33.86L48.30-36.86L99.90-54.26L102.90-51.26L105.60-25.46L105.60-23.06Q109.80-31.46 116.55-38.51Q123.30-45.56 131.55-50.06Q139.80-54.56 147.90-54.56L147.90-54.56Q159.30-54.56 165.30-48.26Q171.30-41.96 171.30-32.36L171.30-32.36Q171.30-22.16 165.45-16.61Q159.60-11.06 151.50-11.06L151.50-11.06Q138.90-11.06 129.30-23.66L129.30-23.66L128.70-24.26Q125.70-28.46 121.80-28.91Q117.90-29.36 114.60-25.16L114.60-25.16Q111.60-22.46 109.65-18.71Q107.70-14.96 105.90-10.16L105.90-10.16L105.90 73.54Q105.90 85.54 116.40 88.54L116.40 88.54L126.00 91.24L126.00 94.24ZM253.20 94.24L181.50 94.24L181.50 91.24L185.10 90.04Q195.90 86.44 195.90 75.04L195.90 75.04L195.90-85.46Q195.90-91.46 193.50-94.61Q191.10-97.76 185.10-99.26L185.10-99.26L181.20-100.16L181.20-103.16L236.10-116.06L239.70-113.36L238.50-71.36L238.50 31.24Q238.50 42.34 238.65 53.29Q238.80 64.24 238.80 75.04L238.80 75.04Q238.80 81.04 241.20 84.79Q243.60 88.54 249.30 90.34L249.30 90.34L253.20 91.24L253.20 94.24ZM330 98.74L330 98.74Q312.30 98.74 298.20 90.79Q284.10 82.84 275.85 66.19Q267.60 49.54 267.60 23.44L267.60 23.44Q267.60-2.96 276.90-20.21Q286.20-37.46 301.50-46.01Q316.80-54.56 334.80-54.56L334.80-54.56Q345.30-54.56 354.90-52.46Q364.50-50.36 372-46.16L372-46.16L372-85.16Q372-91.46 370.05-94.46Q368.10-97.46 361.80-98.66L361.80-98.66L356.10-99.86L356.10-102.86L410.70-116.06L414-113.36L412.80-71.36L412.80 75.34Q412.80 81.34 414.90 85.09Q417 88.84 422.70 90.34L422.70 90.34L425.40 91.24L425.40 94.24L374.10 97.54L371.40 86.74Q363.30 92.14 352.95 95.44Q342.60 98.74 330 98.74ZM347.40 87.64L347.40 87.64Q360 87.64 370.50 80.14L370.50 80.14L370.50-38.96Q359.40-46.16 347.70-46.16L347.70-46.16Q333.30-46.16 323.10-29.51Q312.90-12.86 312.90 22.84L312.90 22.84Q312.90 58.54 322.50 73.09Q332.10 87.64 347.40 87.64Z"/></g>
<g transform="matrix(9.9438 0 0 10.4176 427.7678 417.2861)" id="603687">
<circle style="stroke: none; stroke-width: 1; stroke-dasharray: none; stroke-linecap: butt; stroke-dashoffset: 0; stroke-linejoin: miter; stroke-miterlimit: 4; is-custom-font: none; font-file-url: none; fill: #fcfffe; fill-rule: nonzero; opacity: 1;" vector-effect="non-scaling-stroke" cx="0" cy="0" r="8"/>
</g>
</svg>