<svg xmlns="http://www.w3.org/2000/svg" xmlns:xlink="http://www.w3.org/1999/xlink" version="1.1" width="940" height="788" viewBox="0 0 940 788" xml:space="preserve">
<rect x="0" y="0" width="100%" height="100%" fill="none"/>
<g transform="matrix(5.6107 0 0 5.6107 469.4975 393.4986)" id="61056">
<path style="stroke: #f7b941; stroke-width: 1; stroke-miterlimit: 4; fill: #f7b941; opacity: 1;" vector-effect="non-scaling-stroke" transform=" translate(-75.42, -41.6199)" d="M 68.1002 41.3499 C 50.104 41.2042 32.1079 41.0874 14.1118 40.8905 C 10.5249 40.8505 6.93279 40.5689 3.36035 40.2178 C 2.76932 40.1535 2.21142 39.9124 1.75964 39.526 C 1.30786 39.1395 0.983227 38.6258 0.828173 38.0518 C 0.53479 37.133 1.55475 35.8295 2.77291 35.6378 C 3.95432 35.4521 5.12976 35.1639 6.31707 35.0924 C 13.8997 34.6329 21.4818 33.9826 29.0717 33.8454 C 44.665 33.5652 60.2628 33.4943 75.8594 33.4765 C 90.6565 33.4595 105.454 33.6446 120.251 33.6787 C 122.627 33.6846 125.005 33.3853 127.377 33.1733 C 127.534 33.1345 127.679 33.0567 127.799 32.9472 C 127.918 32.8377 128.008 32.6999 128.061 32.5465 C 128.103 32.1803 127.995 31.562 127.751 31.4307 C 123.204 28.9589 118.713 26.3585 114.037 24.1526 C 103.16 19.0207 92.9557 12.7277 82.7588 6.41374 C 81.0832 5.37607 79.3268 4.32201 78.6508 2.26308 C 78.528 1.88831 78.3364 1.24642 78.4926 1.12106 C 79.052 0.599398 79.7318 0.224347 80.4715 0.0295109 C 81.2592 -0.0634608 82.0572 0.0642497 82.7765 0.39838 C 85.3244 1.55222 87.854 2.75664 90.333 4.05094 C 108.051 13.3014 125.763 22.5621 143.469 31.8331 C 150.157 35.3116 153.336 38.6846 145.307 46.3329 C 142.994 48.5375 140.654 50.7389 138.139 52.6993 C 126.475 61.8006 114.768 70.8462 103.018 79.8362 C 101.403 80.9957 99.699 82.0271 97.9228 82.9211 C 96.7644 83.5499 95.6046 83.177 94.6044 82.4229 C 93.5037 81.5926 92.8204 79.1793 93.1998 78.118 C 94.0432 75.7617 95.7235 74.033 97.5278 72.4676 C 104.475 66.4411 111.46 60.4579 118.481 54.518 C 123.044 50.6365 127.655 46.812 132.211 42.9225 C 132.436 42.7309 132.447 42.1349 132.356 41.7766 C 132.296 41.6215 132.199 41.4833 132.074 41.3737 C 131.949 41.2642 131.799 41.1867 131.638 41.1478 C 129.256 40.9916 126.871 40.7927 124.488 40.8052 C 105.691 40.9045 86.8948 41.0283 68.0982 41.1767 L 68.1002 41.3499 Z" />
</g>
</svg>